<svg id="visual" viewBox="0 0 960 540" width="960" height="540" xmlns="http://www.w3.org/2000/svg" xmlns:xlink="http://www.w3.org/1999/xlink" version="1.1"><rect x="0" y="0" width="960" height="540" fill="#0a192f"></rect><defs><linearGradient id="grad1_0" x1="43.8%" y1="100%" x2="100%" y2="0%"><stop offset="14.444444444444446%" stop-color="#00a789" stop-opacity="1"></stop><stop offset="85.55555555555554%" stop-color="#00a789" stop-opacity="1"></stop></linearGradient></defs><defs><linearGradient id="grad1_1" x1="43.8%" y1="100%" x2="100%" y2="0%"><stop offset="14.444444444444446%" stop-color="#00a789" stop-opacity="1"></stop><stop offset="85.55555555555554%" stop-color="#009289" stop-opacity="1"></stop></linearGradient></defs><defs><linearGradient id="grad1_2" x1="43.8%" y1="100%" x2="100%" y2="0%"><stop offset="14.444444444444446%" stop-color="#007d84" stop-opacity="1"></stop><stop offset="85.55555555555554%" stop-color="#009289" stop-opacity="1"></stop></linearGradient></defs><defs><linearGradient id="grad1_3" x1="43.8%" y1="100%" x2="100%" y2="0%"><stop offset="14.444444444444446%" stop-color="#007d84" stop-opacity="1"></stop><stop offset="85.55555555555554%" stop-color="#00677b" stop-opacity="1"></stop></linearGradient></defs><defs><linearGradient id="grad1_4" x1="43.8%" y1="100%" x2="100%" y2="0%"><stop offset="14.444444444444446%" stop-color="#00526d" stop-opacity="1"></stop><stop offset="85.55555555555554%" stop-color="#00677b" stop-opacity="1"></stop></linearGradient></defs><defs><linearGradient id="grad1_5" x1="43.8%" y1="100%" x2="100%" y2="0%"><stop offset="14.444444444444446%" stop-color="#00526d" stop-opacity="1"></stop><stop offset="85.55555555555554%" stop-color="#003e5a" stop-opacity="1"></stop></linearGradient></defs><defs><linearGradient id="grad1_6" x1="43.8%" y1="100%" x2="100%" y2="0%"><stop offset="14.444444444444446%" stop-color="#002b45" stop-opacity="1"></stop><stop offset="85.55555555555554%" stop-color="#003e5a" stop-opacity="1"></stop></linearGradient></defs><defs><linearGradient id="grad1_7" x1="43.8%" y1="100%" x2="100%" y2="0%"><stop offset="14.444444444444446%" stop-color="#002b45" stop-opacity="1"></stop><stop offset="85.55555555555554%" stop-color="#0a192f" stop-opacity="1"></stop></linearGradient></defs><defs><linearGradient id="grad2_0" x1="0%" y1="100%" x2="56.3%" y2="0%"><stop offset="14.444444444444446%" stop-color="#00a789" stop-opacity="1"></stop><stop offset="85.55555555555554%" stop-color="#00a789" stop-opacity="1"></stop></linearGradient></defs><defs><linearGradient id="grad2_1" x1="0%" y1="100%" x2="56.3%" y2="0%"><stop offset="14.444444444444446%" stop-color="#009289" stop-opacity="1"></stop><stop offset="85.55555555555554%" stop-color="#00a789" stop-opacity="1"></stop></linearGradient></defs><defs><linearGradient id="grad2_2" x1="0%" y1="100%" x2="56.3%" y2="0%"><stop offset="14.444444444444446%" stop-color="#009289" stop-opacity="1"></stop><stop offset="85.55555555555554%" stop-color="#007d84" stop-opacity="1"></stop></linearGradient></defs><defs><linearGradient id="grad2_3" x1="0%" y1="100%" x2="56.3%" y2="0%"><stop offset="14.444444444444446%" stop-color="#00677b" stop-opacity="1"></stop><stop offset="85.55555555555554%" stop-color="#007d84" stop-opacity="1"></stop></linearGradient></defs><defs><linearGradient id="grad2_4" x1="0%" y1="100%" x2="56.3%" y2="0%"><stop offset="14.444444444444446%" stop-color="#00677b" stop-opacity="1"></stop><stop offset="85.55555555555554%" stop-color="#00526d" stop-opacity="1"></stop></linearGradient></defs><defs><linearGradient id="grad2_5" x1="0%" y1="100%" x2="56.3%" y2="0%"><stop offset="14.444444444444446%" stop-color="#003e5a" stop-opacity="1"></stop><stop offset="85.55555555555554%" stop-color="#00526d" stop-opacity="1"></stop></linearGradient></defs><defs><linearGradient id="grad2_6" x1="0%" y1="100%" x2="56.3%" y2="0%"><stop offset="14.444444444444446%" stop-color="#003e5a" stop-opacity="1"></stop><stop offset="85.55555555555554%" stop-color="#002b45" stop-opacity="1"></stop></linearGradient></defs><defs><linearGradient id="grad2_7" x1="0%" y1="100%" x2="56.3%" y2="0%"><stop offset="14.444444444444446%" stop-color="#0a192f" stop-opacity="1"></stop><stop offset="85.55555555555554%" stop-color="#002b45" stop-opacity="1"></stop></linearGradient></defs><g transform="translate(960, 540)"><path d="M-486 0C-426.9 -28.1 -367.7 -56.3 -363.2 -97.3C-358.7 -138.4 -408.8 -192.3 -416.6 -240.5C-424.4 -288.7 -389.9 -331.2 -343.7 -343.7C-297.4 -356.1 -239.5 -338.5 -201 -348.1C-162.5 -357.8 -143.4 -394.6 -113.1 -422.1C-82.8 -449.6 -41.4 -467.8 0 -486L0 0Z" fill="#07223a"></path><path d="M-425.2 0C-373.5 -24.6 -321.7 -49.2 -317.8 -85.2C-313.8 -121.1 -357.7 -168.3 -364.5 -210.4C-371.3 -252.6 -341.1 -289.8 -300.7 -300.7C-260.3 -311.6 -209.6 -296.2 -175.9 -304.6C-142.2 -313 -125.4 -345.3 -99 -369.3C-72.5 -393.4 -36.2 -409.3 0 -425.2L0 0Z" fill="#003450"></path><path d="M-364.5 0C-320.1 -21.1 -275.8 -42.2 -272.4 -73C-269 -103.8 -306.6 -144.2 -312.4 -180.4C-318.3 -216.5 -292.4 -248.4 -257.7 -257.7C-223.1 -267.1 -179.6 -253.9 -150.8 -261.1C-121.9 -268.3 -107.5 -295.9 -84.8 -316.6C-62.1 -337.2 -31.1 -350.9 0 -364.5L0 0Z" fill="#004864"></path><path d="M-303.7 0C-266.8 -17.6 -229.8 -35.2 -227 -60.8C-224.2 -86.5 -255.5 -120.2 -260.3 -150.3C-265.2 -180.4 -243.7 -207 -214.8 -214.8C-185.9 -222.6 -149.7 -211.6 -125.6 -217.6C-101.6 -223.6 -89.6 -246.6 -70.7 -263.8C-51.8 -281 -25.9 -292.4 0 -303.7L0 0Z" fill="#005d74"></path><path d="M-243 0C-213.4 -14.1 -183.9 -28.1 -181.6 -48.7C-179.3 -69.2 -204.4 -96.1 -208.3 -120.3C-212.2 -144.4 -194.9 -165.6 -171.8 -171.8C-148.7 -178.1 -119.8 -169.3 -100.5 -174.1C-81.2 -178.9 -71.7 -197.3 -56.6 -211.1C-41.4 -224.8 -20.7 -233.9 0 -243L0 0Z" fill="#007280"></path><path d="M-182.2 0C-160.1 -10.6 -137.9 -21.1 -136.2 -36.5C-134.5 -51.9 -153.3 -72.1 -156.2 -90.2C-159.1 -108.3 -146.2 -124.2 -128.9 -128.9C-111.5 -133.5 -89.8 -126.9 -75.4 -130.6C-60.9 -134.2 -53.8 -148 -42.4 -158.3C-31.1 -168.6 -15.5 -175.4 0 -182.2L0 0Z" fill="#008787"></path><path d="M-121.5 0C-106.7 -7 -91.9 -14.1 -90.8 -24.3C-89.7 -34.6 -102.2 -48.1 -104.1 -60.1C-106.1 -72.2 -97.5 -82.8 -85.9 -85.9C-74.4 -89 -59.9 -84.6 -50.3 -87C-40.6 -89.4 -35.8 -98.6 -28.3 -105.5C-20.7 -112.4 -10.4 -117 0 -121.5L0 0Z" fill="#009d8a"></path><path d="M-60.7 0C-53.4 -3.5 -46 -7 -45.4 -12.2C-44.8 -17.3 -51.1 -24 -52.1 -30.1C-53 -36.1 -48.7 -41.4 -43 -43C-37.2 -44.5 -29.9 -42.3 -25.1 -43.5C-20.3 -44.7 -17.9 -49.3 -14.1 -52.8C-10.4 -56.2 -5.2 -58.5 0 -60.7L0 0Z" fill="#00a789"></path></g><g transform="translate(0, 0)"><path d="M486 0C479.7 40.5 473.4 80.9 467.5 125.3C461.6 169.6 456.1 217.9 420.9 243C385.7 268.1 320.7 270.1 275.8 275.8C230.9 281.5 206.1 290.9 184.5 319.6C162.9 348.2 144.6 396 114.4 426.9C84.2 457.9 42.1 471.9 0 486L0 0Z" fill="#07223a"></path><path d="M425.3 0C419.7 35.4 414.2 70.8 409.1 109.6C403.9 148.4 399.1 190.7 368.3 212.6C337.4 234.6 280.6 236.3 241.3 241.3C202 246.3 180.3 254.6 161.4 279.6C142.6 304.7 126.5 346.5 100.1 373.6C73.7 400.6 36.8 412.9 0 425.3L0 0Z" fill="#003450"></path><path d="M364.5 0C359.8 30.3 355.1 60.7 350.6 94C346.2 127.2 342.1 163.4 315.7 182.2C289.2 201.1 240.5 202.5 206.8 206.8C173.2 211.1 154.6 218.2 138.4 239.7C122.2 261.1 108.5 297 85.8 320.2C63.1 343.4 31.6 354 0 364.5L0 0Z" fill="#004864"></path><path d="M303.8 0C299.8 25.3 295.9 50.6 292.2 78.3C288.5 106 285.1 136.2 263.1 151.9C241 167.6 200.4 168.8 172.4 172.4C144.3 175.9 128.8 181.8 115.3 199.7C101.8 217.6 90.4 247.5 71.5 266.8C52.6 286.2 26.3 295 0 303.8L0 0Z" fill="#005d74"></path><path d="M243 0C239.9 20.2 236.7 40.5 233.8 62.6C230.8 84.8 228.1 108.9 210.4 121.5C192.8 134.1 160.3 135 137.9 137.9C115.4 140.7 103 145.5 92.3 159.8C81.5 174.1 72.3 198 57.2 213.5C42.1 228.9 21 236 0 243L0 0Z" fill="#007280"></path><path d="M182.3 0C179.9 15.2 177.5 30.3 175.3 47C173.1 63.6 171 81.7 157.8 91.1C144.6 100.5 120.3 101.3 103.4 103.4C86.6 105.6 77.3 109.1 69.2 119.8C61.1 130.6 54.2 148.5 42.9 160.1C31.6 171.7 15.8 177 0 182.3L0 0Z" fill="#008787"></path><path d="M121.5 0C119.9 10.1 118.4 20.2 116.9 31.3C115.4 42.4 114 54.5 105.2 60.7C96.4 67 80.2 67.5 68.9 68.9C57.7 70.4 51.5 72.7 46.1 79.9C40.7 87 36.2 99 28.6 106.7C21 114.5 10.5 118 0 121.5L0 0Z" fill="#009d8a"></path><path d="M60.8 0C60 5.1 59.2 10.1 58.4 15.7C57.7 21.2 57 27.2 52.6 30.4C48.2 33.5 40.1 33.8 34.5 34.5C28.9 35.2 25.8 36.4 23.1 39.9C20.4 43.5 18.1 49.5 14.3 53.4C10.5 57.2 5.3 59 0 60.8L0 0Z" fill="#00a789"></path></g></svg>