<svg id="visual" viewBox="0 0 540 960" width="540" height="960" xmlns="http://www.w3.org/2000/svg" xmlns:xlink="http://www.w3.org/1999/xlink" version="1.1"><rect x="0" y="0" width="540" height="960" fill="#0a192f"></rect><defs><linearGradient id="grad1_0" x1="0%" y1="0%" x2="100%" y2="100%"><stop offset="30%" stop-color="#82d47b" stop-opacity="1"></stop><stop offset="70%" stop-color="#82d47b" stop-opacity="1"></stop></linearGradient></defs><defs><linearGradient id="grad1_1" x1="0%" y1="0%" x2="100%" y2="100%"><stop offset="30%" stop-color="#82d47b" stop-opacity="1"></stop><stop offset="70%" stop-color="#3ebb84" stop-opacity="1"></stop></linearGradient></defs><defs><linearGradient id="grad1_2" x1="0%" y1="0%" x2="100%" y2="100%"><stop offset="30%" stop-color="#00a08a" stop-opacity="1"></stop><stop offset="70%" stop-color="#3ebb84" stop-opacity="1"></stop></linearGradient></defs><defs><linearGradient id="grad1_3" x1="0%" y1="0%" x2="100%" y2="100%"><stop offset="30%" stop-color="#00a08a" stop-opacity="1"></stop><stop offset="70%" stop-color="#008387" stop-opacity="1"></stop></linearGradient></defs><defs><linearGradient id="grad1_4" x1="0%" y1="0%" x2="100%" y2="100%"><stop offset="30%" stop-color="#00677c" stop-opacity="1"></stop><stop offset="70%" stop-color="#008387" stop-opacity="1"></stop></linearGradient></defs><defs><linearGradient id="grad1_5" x1="0%" y1="0%" x2="100%" y2="100%"><stop offset="30%" stop-color="#00677c" stop-opacity="1"></stop><stop offset="70%" stop-color="#004b68" stop-opacity="1"></stop></linearGradient></defs><defs><linearGradient id="grad1_6" x1="0%" y1="0%" x2="100%" y2="100%"><stop offset="30%" stop-color="#00314d" stop-opacity="1"></stop><stop offset="70%" stop-color="#004b68" stop-opacity="1"></stop></linearGradient></defs><defs><linearGradient id="grad1_7" x1="0%" y1="0%" x2="100%" y2="100%"><stop offset="30%" stop-color="#00314d" stop-opacity="1"></stop><stop offset="70%" stop-color="#0a192f" stop-opacity="1"></stop></linearGradient></defs><defs><linearGradient id="grad2_0" x1="0%" y1="0%" x2="100%" y2="100%"><stop offset="30%" stop-color="#82d47b" stop-opacity="1"></stop><stop offset="70%" stop-color="#82d47b" stop-opacity="1"></stop></linearGradient></defs><defs><linearGradient id="grad2_1" x1="0%" y1="0%" x2="100%" y2="100%"><stop offset="30%" stop-color="#3ebb84" stop-opacity="1"></stop><stop offset="70%" stop-color="#82d47b" stop-opacity="1"></stop></linearGradient></defs><defs><linearGradient id="grad2_2" x1="0%" y1="0%" x2="100%" y2="100%"><stop offset="30%" stop-color="#3ebb84" stop-opacity="1"></stop><stop offset="70%" stop-color="#00a08a" stop-opacity="1"></stop></linearGradient></defs><defs><linearGradient id="grad2_3" x1="0%" y1="0%" x2="100%" y2="100%"><stop offset="30%" stop-color="#008387" stop-opacity="1"></stop><stop offset="70%" stop-color="#00a08a" stop-opacity="1"></stop></linearGradient></defs><defs><linearGradient id="grad2_4" x1="0%" y1="0%" x2="100%" y2="100%"><stop offset="30%" stop-color="#008387" stop-opacity="1"></stop><stop offset="70%" stop-color="#00677c" stop-opacity="1"></stop></linearGradient></defs><defs><linearGradient id="grad2_5" x1="0%" y1="0%" x2="100%" y2="100%"><stop offset="30%" stop-color="#004b68" stop-opacity="1"></stop><stop offset="70%" stop-color="#00677c" stop-opacity="1"></stop></linearGradient></defs><defs><linearGradient id="grad2_6" x1="0%" y1="0%" x2="100%" y2="100%"><stop offset="30%" stop-color="#004b68" stop-opacity="1"></stop><stop offset="70%" stop-color="#00314d" stop-opacity="1"></stop></linearGradient></defs><defs><linearGradient id="grad2_7" x1="0%" y1="0%" x2="100%" y2="100%"><stop offset="30%" stop-color="#0a192f" stop-opacity="1"></stop><stop offset="70%" stop-color="#00314d" stop-opacity="1"></stop></linearGradient></defs><g transform="translate(540, 0)"><path d="M0 513C-34.7 486.8 -69.4 460.6 -101.2 443.6C-133.1 426.5 -162.2 418.6 -200.5 416.2C-238.7 413.9 -286.2 417 -319.9 401.1C-353.5 385.2 -373.2 350.2 -399.5 318.6C-425.9 287 -458.9 258.8 -459.5 221.3C-460.1 183.8 -428.4 137 -431.9 98.6C-435.4 60.2 -474.2 30.1 -513 0L0 0Z" fill="#04253e"></path><path d="M0 448.9C-30.4 426 -60.7 403.1 -88.6 388.1C-116.5 373.2 -141.9 366.3 -175.4 364.2C-208.9 362.1 -250.5 364.9 -279.9 350.9C-309.3 337 -326.5 306.4 -349.6 278.8C-372.6 251.1 -401.5 226.4 -402.1 193.6C-402.6 160.8 -374.8 119.9 -377.9 86.3C-381 52.6 -414.9 26.3 -448.9 0L0 0Z" fill="#003e5b"></path><path d="M0 384.8C-26 365.1 -52 345.5 -75.9 332.7C-99.8 319.9 -121.6 314 -150.3 312.2C-179.1 310.4 -214.7 312.7 -239.9 300.8C-265.1 288.9 -279.9 262.6 -299.6 239C-319.4 215.3 -344.2 194.1 -344.6 166C-345.1 137.8 -321.3 102.8 -323.9 73.9C-326.6 45.1 -355.7 22.6 -384.7 0L0 0Z" fill="#005973"></path><path d="M0 320.6C-21.7 304.3 -43.4 287.9 -63.3 277.2C-83.2 266.6 -101.4 261.6 -125.3 260.2C-149.2 258.7 -178.9 260.6 -199.9 250.7C-220.9 240.7 -233.2 218.9 -249.7 199.1C-266.2 179.4 -286.8 161.7 -287.2 138.3C-287.6 114.9 -267.7 85.6 -269.9 61.6C-272.1 37.6 -296.4 18.8 -320.6 0L0 0Z" fill="#007583"></path><path d="M0 256.5C-17.3 243.4 -34.7 230.3 -50.6 221.8C-66.6 213.3 -81.1 209.3 -100.2 208.1C-119.4 206.9 -143.1 208.5 -159.9 200.5C-176.7 192.6 -186.6 175.1 -199.8 159.3C-212.9 143.5 -229.4 129.4 -229.7 110.6C-230.1 91.9 -214.2 68.5 -215.9 49.3C-217.7 30.1 -237.1 15 -256.5 0L0 0Z" fill="#00928a"></path><path d="M0 192.4C-13 182.6 -26 172.7 -38 166.3C-49.9 160 -60.8 157 -75.2 156.1C-89.5 155.2 -107.3 156.4 -119.9 150.4C-132.5 144.4 -139.9 131.3 -149.8 119.5C-159.7 107.6 -172.1 97 -172.3 83C-172.5 68.9 -160.6 51.4 -162 37C-163.3 22.6 -177.8 11.3 -192.4 0L0 0Z" fill="#00ad88"></path><path d="M0 128.3C-8.7 121.7 -17.3 115.2 -25.3 110.9C-33.3 106.6 -40.5 104.7 -50.1 104.1C-59.7 103.5 -71.6 104.2 -80 100.3C-88.4 96.3 -93.3 87.5 -99.9 79.7C-106.5 71.8 -114.7 64.7 -114.9 55.3C-115 45.9 -107.1 34.3 -108 24.6C-108.9 15 -118.6 7.5 -128.2 0L0 0Z" fill="#61c880"></path><path d="M0 64.1C-4.3 60.9 -8.7 57.6 -12.7 55.4C-16.6 53.3 -20.3 52.3 -25.1 52C-29.8 51.7 -35.8 52.1 -40 50.1C-44.2 48.1 -46.6 43.8 -49.9 39.8C-53.2 35.9 -57.4 32.3 -57.4 27.7C-57.5 23 -53.5 17.1 -54 12.3C-54.4 7.5 -59.3 3.8 -64.1 0L0 0Z" fill="#82d47b"></path></g><g transform="translate(0, 960)"><path d="M0 -513C41.2 -517.2 82.4 -521.3 114.2 -500.1C145.9 -478.9 168.1 -432.4 194.8 -404.5C221.5 -376.7 252.7 -367.5 277.5 -347.9C302.2 -328.3 320.4 -298.4 341.7 -272.5C363 -246.6 387.4 -224.7 413.5 -199.2C439.7 -173.6 467.7 -144.4 484.5 -110.6C501.4 -76.8 507.2 -38.4 513 0L0 0Z" fill="#04253e"></path><path d="M0 -448.9C36.1 -452.5 72.1 -456.2 99.9 -437.6C127.6 -419.1 147.1 -378.3 170.5 -354C193.8 -329.6 221.2 -321.6 242.8 -304.4C264.4 -287.3 280.3 -261.1 299 -238.4C317.6 -215.7 338.9 -196.6 361.9 -174.3C384.8 -151.9 409.2 -126.3 424 -96.8C438.7 -67.2 443.8 -33.6 448.9 0L0 0Z" fill="#003e5b"></path><path d="M0 -384.7C30.9 -387.9 61.8 -391 85.6 -375.1C109.4 -359.2 126.1 -324.3 146.1 -303.4C166.1 -282.5 189.6 -275.6 208.1 -260.9C226.6 -246.3 240.3 -223.8 256.2 -204.3C272.2 -184.9 290.5 -168.5 310.2 -149.4C329.8 -130.2 350.8 -108.3 363.4 -82.9C376.1 -57.6 380.4 -28.8 384.8 0L0 0Z" fill="#005973"></path><path d="M0 -320.6C25.8 -323.2 51.5 -325.8 71.3 -312.6C91.2 -299.3 105.1 -270.2 121.8 -252.8C138.5 -235.4 158 -229.7 173.4 -217.4C188.8 -205.2 200.2 -186.5 213.5 -170.3C226.9 -154.1 242.1 -140.4 258.5 -124.5C274.8 -108.5 292.3 -90.2 302.8 -69.1C313.4 -48 317 -24 320.6 0L0 0Z" fill="#007583"></path><path d="M0 -256.5C20.6 -258.6 41.2 -260.7 57.1 -250.1C72.9 -239.5 84 -216.2 97.4 -202.3C110.8 -188.3 126.4 -183.7 138.7 -174C151.1 -164.2 160.2 -149.2 170.8 -136.2C181.5 -123.3 193.7 -112.3 206.8 -99.6C219.9 -86.8 233.8 -72.2 242.3 -55.3C250.7 -38.4 253.6 -19.2 256.5 0L0 0Z" fill="#00928a"></path><path d="M0 -192.4C15.5 -193.9 30.9 -195.5 42.8 -187.6C54.7 -179.6 63 -162.1 73.1 -151.7C83.1 -141.3 94.8 -137.8 104 -130.5C113.3 -123.1 120.1 -111.9 128.1 -102.2C136.1 -92.5 145.3 -84.3 155.1 -74.7C164.9 -65.1 175.4 -54.1 181.7 -41.5C188 -28.8 190.2 -14.4 192.4 0L0 0Z" fill="#00ad88"></path><path d="M0 -128.2C10.3 -129.3 20.6 -130.3 28.5 -125C36.5 -119.7 42 -108.1 48.7 -101.1C55.4 -94.2 63.2 -91.9 69.4 -87C75.5 -82.1 80.1 -74.6 85.4 -68.1C90.7 -61.6 96.8 -56.2 103.4 -49.8C109.9 -43.4 116.9 -36.1 121.1 -27.6C125.4 -19.2 126.8 -9.6 128.3 0L0 0Z" fill="#61c880"></path><path d="M0 -64.1C5.2 -64.6 10.3 -65.2 14.3 -62.5C18.2 -59.9 21 -54 24.4 -50.6C27.7 -47.1 31.6 -45.9 34.7 -43.5C37.8 -41 40 -37.3 42.7 -34.1C45.4 -30.8 48.4 -28.1 51.7 -24.9C55 -21.7 58.5 -18 60.6 -13.8C62.7 -9.6 63.4 -4.8 64.1 0L0 0Z" fill="#82d47b"></path></g></svg>