<svg id="visual" viewBox="0 0 960 540" width="960" height="540" xmlns="http://www.w3.org/2000/svg" xmlns:xlink="http://www.w3.org/1999/xlink" version="1.1"><rect x="0" y="0" width="960" height="540" fill="#0a192f"></rect><defs><linearGradient id="grad1_0" x1="43.8%" y1="0%" x2="100%" y2="100%"><stop offset="14.444444444444446%" stop-color="#00a789" stop-opacity="1"></stop><stop offset="85.55555555555554%" stop-color="#00a789" stop-opacity="1"></stop></linearGradient></defs><defs><linearGradient id="grad1_1" x1="43.8%" y1="0%" x2="100%" y2="100%"><stop offset="14.444444444444446%" stop-color="#00a789" stop-opacity="1"></stop><stop offset="85.55555555555554%" stop-color="#009289" stop-opacity="1"></stop></linearGradient></defs><defs><linearGradient id="grad1_2" x1="43.8%" y1="0%" x2="100%" y2="100%"><stop offset="14.444444444444446%" stop-color="#007d84" stop-opacity="1"></stop><stop offset="85.55555555555554%" stop-color="#009289" stop-opacity="1"></stop></linearGradient></defs><defs><linearGradient id="grad1_3" x1="43.8%" y1="0%" x2="100%" y2="100%"><stop offset="14.444444444444446%" stop-color="#007d84" stop-opacity="1"></stop><stop offset="85.55555555555554%" stop-color="#00677b" stop-opacity="1"></stop></linearGradient></defs><defs><linearGradient id="grad1_4" x1="43.8%" y1="0%" x2="100%" y2="100%"><stop offset="14.444444444444446%" stop-color="#00526d" stop-opacity="1"></stop><stop offset="85.55555555555554%" stop-color="#00677b" stop-opacity="1"></stop></linearGradient></defs><defs><linearGradient id="grad1_5" x1="43.8%" y1="0%" x2="100%" y2="100%"><stop offset="14.444444444444446%" stop-color="#00526d" stop-opacity="1"></stop><stop offset="85.55555555555554%" stop-color="#003e5a" stop-opacity="1"></stop></linearGradient></defs><defs><linearGradient id="grad1_6" x1="43.8%" y1="0%" x2="100%" y2="100%"><stop offset="14.444444444444446%" stop-color="#002b45" stop-opacity="1"></stop><stop offset="85.55555555555554%" stop-color="#003e5a" stop-opacity="1"></stop></linearGradient></defs><defs><linearGradient id="grad1_7" x1="43.8%" y1="0%" x2="100%" y2="100%"><stop offset="14.444444444444446%" stop-color="#002b45" stop-opacity="1"></stop><stop offset="85.55555555555554%" stop-color="#0a192f" stop-opacity="1"></stop></linearGradient></defs><defs><linearGradient id="grad2_0" x1="0%" y1="0%" x2="56.3%" y2="100%"><stop offset="14.444444444444446%" stop-color="#00a789" stop-opacity="1"></stop><stop offset="85.55555555555554%" stop-color="#00a789" stop-opacity="1"></stop></linearGradient></defs><defs><linearGradient id="grad2_1" x1="0%" y1="0%" x2="56.3%" y2="100%"><stop offset="14.444444444444446%" stop-color="#009289" stop-opacity="1"></stop><stop offset="85.55555555555554%" stop-color="#00a789" stop-opacity="1"></stop></linearGradient></defs><defs><linearGradient id="grad2_2" x1="0%" y1="0%" x2="56.3%" y2="100%"><stop offset="14.444444444444446%" stop-color="#009289" stop-opacity="1"></stop><stop offset="85.55555555555554%" stop-color="#007d84" stop-opacity="1"></stop></linearGradient></defs><defs><linearGradient id="grad2_3" x1="0%" y1="0%" x2="56.3%" y2="100%"><stop offset="14.444444444444446%" stop-color="#00677b" stop-opacity="1"></stop><stop offset="85.55555555555554%" stop-color="#007d84" stop-opacity="1"></stop></linearGradient></defs><defs><linearGradient id="grad2_4" x1="0%" y1="0%" x2="56.3%" y2="100%"><stop offset="14.444444444444446%" stop-color="#00677b" stop-opacity="1"></stop><stop offset="85.55555555555554%" stop-color="#00526d" stop-opacity="1"></stop></linearGradient></defs><defs><linearGradient id="grad2_5" x1="0%" y1="0%" x2="56.3%" y2="100%"><stop offset="14.444444444444446%" stop-color="#003e5a" stop-opacity="1"></stop><stop offset="85.55555555555554%" stop-color="#00526d" stop-opacity="1"></stop></linearGradient></defs><defs><linearGradient id="grad2_6" x1="0%" y1="0%" x2="56.3%" y2="100%"><stop offset="14.444444444444446%" stop-color="#003e5a" stop-opacity="1"></stop><stop offset="85.55555555555554%" stop-color="#002b45" stop-opacity="1"></stop></linearGradient></defs><defs><linearGradient id="grad2_7" x1="0%" y1="0%" x2="56.3%" y2="100%"><stop offset="14.444444444444446%" stop-color="#0a192f" stop-opacity="1"></stop><stop offset="85.55555555555554%" stop-color="#002b45" stop-opacity="1"></stop></linearGradient></defs><g transform="translate(960, 0)"><path d="M0 486C-28.1 426.9 -56.3 367.7 -97.3 363.2C-138.4 358.7 -192.3 408.8 -240.5 416.6C-288.7 424.4 -331.2 389.9 -343.7 343.7C-356.1 297.4 -338.5 239.5 -348.1 201C-357.8 162.5 -394.6 143.4 -422.1 113.1C-449.6 82.8 -467.8 41.4 -486 0L0 0Z" fill="#07223a"></path><path d="M0 425.3C-24.6 373.5 -49.2 321.7 -85.2 317.8C-121.1 313.8 -168.3 357.7 -210.4 364.5C-252.6 371.3 -289.8 341.1 -300.7 300.7C-311.6 260.3 -296.2 209.6 -304.6 175.9C-313 142.2 -345.3 125.4 -369.3 99C-393.4 72.5 -409.3 36.2 -425.2 0L0 0Z" fill="#003450"></path><path d="M0 364.5C-21.1 320.1 -42.2 275.8 -73 272.4C-103.8 269 -144.2 306.6 -180.4 312.4C-216.5 318.3 -248.4 292.4 -257.7 257.7C-267.1 223.1 -253.9 179.6 -261.1 150.8C-268.3 121.9 -295.9 107.5 -316.6 84.8C-337.2 62.1 -350.9 31.1 -364.5 0L0 0Z" fill="#004864"></path><path d="M0 303.8C-17.6 266.8 -35.2 229.8 -60.8 227C-86.5 224.2 -120.2 255.5 -150.3 260.3C-180.4 265.2 -207 243.7 -214.8 214.8C-222.6 185.9 -211.6 149.7 -217.6 125.6C-223.6 101.6 -246.6 89.6 -263.8 70.7C-281 51.8 -292.4 25.9 -303.7 0L0 0Z" fill="#005d74"></path><path d="M0 243C-14.1 213.4 -28.1 183.9 -48.7 181.6C-69.2 179.3 -96.1 204.4 -120.2 208.3C-144.4 212.2 -165.6 194.9 -171.8 171.8C-178.1 148.7 -169.3 119.8 -174.1 100.5C-178.9 81.2 -197.3 71.7 -211.1 56.6C-224.8 41.4 -233.9 20.7 -243 0L0 0Z" fill="#007280"></path><path d="M0 182.3C-10.6 160.1 -21.1 137.9 -36.5 136.2C-51.9 134.5 -72.1 153.3 -90.2 156.2C-108.3 159.1 -124.2 146.2 -128.9 128.9C-133.5 111.5 -126.9 89.8 -130.6 75.4C-134.2 60.9 -148 53.8 -158.3 42.4C-168.6 31.1 -175.4 15.5 -182.2 0L0 0Z" fill="#008787"></path><path d="M0 121.5C-7 106.7 -14.1 91.9 -24.3 90.8C-34.6 89.7 -48.1 102.2 -60.1 104.1C-72.2 106.1 -82.8 97.5 -85.9 85.9C-89 74.4 -84.6 59.9 -87 50.3C-89.4 40.6 -98.6 35.8 -105.5 28.3C-112.4 20.7 -117 10.4 -121.5 0L0 0Z" fill="#009d8a"></path><path d="M0 60.8C-3.5 53.4 -7 46 -12.2 45.4C-17.3 44.8 -24 51.1 -30.1 52.1C-36.1 53 -41.4 48.7 -43 43C-44.5 37.2 -42.3 29.9 -43.5 25.1C-44.7 20.3 -49.3 17.9 -52.8 14.1C-56.2 10.4 -58.5 5.2 -60.7 0L0 0Z" fill="#00a789"></path></g><g transform="translate(0, 540)"><path d="M0 -486C40.5 -479.7 80.9 -473.4 125.3 -467.5C169.6 -461.6 217.9 -456.1 243 -420.9C268.1 -385.7 270.1 -320.7 275.8 -275.8C281.5 -230.9 290.9 -206.1 319.6 -184.5C348.2 -162.9 396 -144.6 426.9 -114.4C457.9 -84.2 471.9 -42.1 486 0L0 0Z" fill="#07223a"></path><path d="M0 -425.2C35.4 -419.7 70.8 -414.2 109.6 -409.1C148.4 -403.9 190.7 -399.1 212.6 -368.3C234.6 -337.4 236.3 -280.6 241.3 -241.3C246.3 -202 254.6 -180.3 279.6 -161.4C304.7 -142.6 346.5 -126.5 373.6 -100.1C400.6 -73.7 412.9 -36.8 425.3 0L0 0Z" fill="#003450"></path><path d="M0 -364.5C30.3 -359.8 60.7 -355.1 94 -350.6C127.2 -346.2 163.4 -342.1 182.2 -315.7C201.1 -289.2 202.5 -240.5 206.8 -206.8C211.1 -173.2 218.2 -154.6 239.7 -138.4C261.1 -122.2 297 -108.5 320.2 -85.8C343.4 -63.1 354 -31.6 364.5 0L0 0Z" fill="#004864"></path><path d="M0 -303.7C25.3 -299.8 50.6 -295.9 78.3 -292.2C106 -288.5 136.2 -285.1 151.9 -263.1C167.6 -241 168.8 -200.4 172.4 -172.4C175.9 -144.3 181.8 -128.8 199.7 -115.3C217.6 -101.8 247.5 -90.4 266.8 -71.5C286.2 -52.6 295 -26.3 303.8 0L0 0Z" fill="#005d74"></path><path d="M0 -243C20.2 -239.9 40.5 -236.7 62.6 -233.8C84.8 -230.8 108.9 -228.1 121.5 -210.4C134.1 -192.8 135 -160.3 137.9 -137.9C140.7 -115.4 145.5 -103 159.8 -92.3C174.1 -81.5 198 -72.3 213.5 -57.2C228.9 -42.1 236 -21 243 0L0 0Z" fill="#007280"></path><path d="M0 -182.2C15.2 -179.9 30.3 -177.5 47 -175.3C63.6 -173.1 81.7 -171 91.1 -157.8C100.5 -144.6 101.3 -120.3 103.4 -103.4C105.6 -86.6 109.1 -77.3 119.8 -69.2C130.6 -61.1 148.5 -54.2 160.1 -42.9C171.7 -31.6 177 -15.8 182.3 0L0 0Z" fill="#008787"></path><path d="M0 -121.5C10.1 -119.9 20.2 -118.4 31.3 -116.9C42.4 -115.4 54.5 -114 60.7 -105.2C67 -96.4 67.5 -80.2 68.9 -68.9C70.4 -57.7 72.7 -51.5 79.9 -46.1C87 -40.7 99 -36.2 106.7 -28.6C114.5 -21 118 -10.5 121.5 0L0 0Z" fill="#009d8a"></path><path d="M0 -60.7C5.1 -60 10.1 -59.2 15.7 -58.4C21.2 -57.7 27.2 -57 30.4 -52.6C33.5 -48.2 33.8 -40.1 34.5 -34.5C35.2 -28.9 36.4 -25.8 39.9 -23.1C43.5 -20.4 49.5 -18.1 53.4 -14.3C57.2 -10.5 59 -5.3 60.8 0L0 0Z" fill="#00a789"></path></g></svg>